<svg xmlns="http://www.w3.org/2000/svg" viewBox="0 0 64 64" width="64" height="64">
  <rect x="2" y="2" width="60" height="60" rx="2" fill="#2C3E50"/>

  <rect x="16" y="28" width="32" height="18" rx="2" fill="#ECF0F1" opacity="0.95"/>

  <g fill="#34495E">
    <rect x="18" y="30" width="4" height="4" rx="0.5"/>
    <rect x="23" y="30" width="4" height="4" rx="0.5"/>
    <rect x="28" y="30" width="4" height="4" rx="0.5"/>
    <rect x="33" y="30" width="4" height="4" rx="0.5"/>
    <rect x="38" y="30" width="4" height="4" rx="0.5"/>
    <rect x="43" y="30" width="4" height="4" rx="0.5"/>

    <rect x="18" y="35" width="4" height="4" rx="0.5"/>
    <rect x="23" y="35" width="4" height="4" rx="0.5"/>
    <rect x="28" y="35" width="4" height="4" rx="0.5"/>
    <rect x="33" y="35" width="4" height="4" rx="0.5"/>
    <rect x="38" y="35" width="4" height="4" rx="0.5"/>
    <rect x="43" y="35" width="4" height="4" rx="0.5"/>

    <rect x="20" y="40" width="24" height="4" rx="0.5"/>
  </g>

  <circle cx="52" cy="20" r="4" fill="#E74C3C" opacity="0.9"/>
  <circle cx="52" cy="20" r="2.5" fill="#C0392B"/>

  <path d="M 20 18 Q 24 16, 28 18 T 36 18 T 44 18"
        stroke="#3498DB"
        stroke-width="1.5"
        fill="none"
        opacity="0.7"
        stroke-linecap="round"/>
</svg>